<svg width="22" height="24" viewBox="0 0 22 24" fill="none" xmlns="http://www.w3.org/2000/svg">
<path fill-rule="evenodd" clip-rule="evenodd" d="M16.3337 15.9984C18.0751 15.9984 19.5577 17.1117 20.107 18.665H21.6671C21.6671 18.665 21.6671 19.0555 21.6671 19.3317C21.6671 19.9984 21.6671 19.6447 21.6671 19.9984C21.6671 20.352 21.6671 20.665 21.6671 20.9412C21.6671 21.3317 21.6671 21.3317 21.6671 21.3317H20.107C19.8316 22.1124 19.3207 22.7884 18.6449 23.2666C17.9691 23.7448 17.1616 24.0016 16.3337 24.0016C15.5058 24.0016 14.6983 23.7448 14.0225 23.2666C13.3467 22.7884 12.8359 22.1124 12.5604 21.3317H0.333718C0.333987 21.0348 0.333228 20.8681 0.333745 20.665C0.333745 20.3369 0.333566 20.352 0.333566 19.9984C0.333566 19.6447 0.333745 19.2119 0.333745 18.7794C0.333799 18.4463 0.333664 19.0976 0.333718 18.665H12.5604C12.8362 17.8848 13.3473 17.2094 14.0231 16.7318C14.6989 16.2542 15.5062 15.9979 16.3337 15.9984ZM16.3337 18.665C15.9801 18.665 15.641 18.8055 15.3909 19.0555C15.1409 19.3056 15.0004 19.6447 15.0004 19.9984C15.0004 20.352 15.1409 20.6911 15.3909 20.9412C15.641 21.1912 15.9801 21.3317 16.3337 21.3317C16.6873 21.3317 17.0265 21.1912 17.2765 20.9412C17.5266 20.6911 17.667 20.352 17.667 19.9984C17.667 19.6447 17.5266 19.3056 17.2765 19.0555C17.0265 18.8055 16.6873 18.665 16.3337 18.665ZM5.66705 7.99835C6.45237 7.99825 7.22035 8.22931 7.87523 8.66274C8.53011 9.09616 9.04292 9.71277 9.34972 10.4357L9.43905 10.665H21.6671C21.6671 10.665 21.6671 11.0088 21.6671 11.3317C21.6671 11.9984 21.6671 11.3317 21.6671 11.9984C21.6671 12.665 21.6671 12.665 21.6671 12.665V13.3317H9.44038C9.17158 14.0921 8.67928 14.7535 8.02803 15.2292C7.37677 15.7049 6.59697 15.9727 5.79085 15.9975C4.98474 16.0223 4.18995 15.8029 3.51069 15.3681C2.83143 14.9333 2.29941 14.3034 1.98438 13.561L1.89372 13.3317H0.333718C0.333718 13.3317 0.337337 13.3161 0.333427 12.6911C0.331146 12.3264 0.333427 12.4254 0.337337 12.0765C0.333427 11.6546 0.333427 11.3317 0.333427 11.3317L0.333545 10.9984L0.333663 10.665H1.89372C2.16956 9.88481 2.6806 9.20936 3.35641 8.73176C4.03221 8.25416 4.83952 7.99792 5.66705 7.99835ZM5.66705 10.665C5.31343 10.665 4.97429 10.8055 4.72424 11.0555C4.47419 11.3056 4.33372 11.6447 4.33372 11.9984C4.33372 12.352 4.47419 12.6911 4.72424 12.9412C4.97429 13.1912 5.31343 13.3317 5.66705 13.3317C6.02067 13.3317 6.35981 13.1912 6.60986 12.9412C6.85991 12.6911 7.00038 12.352 7.00038 11.9984C7.00038 11.6447 6.85991 11.3056 6.60986 11.0555C6.35981 10.8055 6.02067 10.665 5.66705 10.665ZM16.3337 -0.0016474C18.0751 -0.0016474 19.5577 1.11169 20.107 2.66502H21.6671V3.33169C21.6671 3.99835 21.6671 3.64473 21.6671 3.99835C21.6671 4.35197 21.6671 3.99835 21.6671 4.66502V5.33169H20.107C19.8316 6.1124 19.3207 6.78844 18.6449 7.26663C17.9691 7.74483 17.1616 8.00162 16.3337 8.00162C15.5058 8.00162 14.6983 7.74483 14.0225 7.26663C13.3467 6.78844 12.8359 6.1124 12.5604 5.33169H0.333718C0.333718 5.33169 0.333745 5.33169 0.333745 4.66502C0.333745 3.99835 0.333566 4.35197 0.333566 3.99835C0.333566 3.64473 0.333745 3.33169 0.333745 2.7794C0.333745 2.66502 0.333745 3.33169 0.333718 2.66502H12.5604C12.8362 1.88481 13.3473 1.20936 14.0231 0.731761C14.6989 0.25416 15.5062 -0.00208123 16.3337 -0.0016474ZM16.3337 2.66502C15.9801 2.66502 15.641 2.8055 15.3909 3.05554C15.1409 3.30559 15.0004 3.64473 15.0004 3.99835C15.0004 4.35197 15.1409 4.69111 15.3909 4.94116C15.641 5.19121 15.9801 5.33169 16.3337 5.33169C16.6873 5.33169 17.0265 5.19121 17.2765 4.94116C17.5266 4.69111 17.667 4.35197 17.667 3.99835C17.667 3.64473 17.5266 3.30559 17.2765 3.05554C17.0265 2.8055 16.6873 2.66502 16.3337 2.66502Z" fill="#494A4E"/>
</svg>
