<svg width="20" height="15" viewBox="0 0 20 15" fill="none" xmlns="http://www.w3.org/2000/svg">
<path d="M0 0.5V14.5H20V0.5H0ZM5 12.5C5 11.7044 4.68393 10.9413 4.12132 10.3787C3.55871 9.81607 2.79565 9.5 2 9.5V5.5C2.79565 5.5 3.55871 5.18393 4.12132 4.62132C4.68393 4.05871 5 3.29565 5 2.5H15C15 3.29565 15.3161 4.05871 15.8787 4.62132C16.4413 5.18393 17.2044 5.5 18 5.5V9.5C17.2044 9.5 16.4413 9.81607 15.8787 10.3787C15.3161 10.9413 15 11.7044 15 12.5H5ZM10 4.5C11.1 4.5 12 5.8 12 7.5C12 9.2 11.1 10.5 10 10.5C8.9 10.5 8 9.2 8 7.5C8 5.8 8.9 4.5 10 4.5Z" fill="#F5F5F7"/>
</svg>
