<svg width="18" height="19" viewBox="0 0 18 19" fill="none" xmlns="http://www.w3.org/2000/svg">
<path d="M18 13.92V17.456C18.0001 17.7092 17.9042 17.953 17.7316 18.1382C17.559 18.3234 17.3226 18.4363 17.07 18.454C16.6333 18.4847 16.2767 18.5 16 18.5C7.163 18.5 0 11.337 0 2.5C0 2.224 0.0153333 1.86733 0.046 1.43C0.0637224 1.17744 0.176581 0.941011 0.361804 0.768409C0.547026 0.595807 0.790823 0.499886 1.044 0.5H4.58C4.70404 0.499875 4.8237 0.545859 4.91573 0.62902C5.00776 0.712182 5.0656 0.826583 5.078 0.95C5.10067 1.17933 5.122 1.36333 5.142 1.502C5.34072 2.88893 5.74799 4.23784 6.35 5.503C6.445 5.703 6.383 5.942 6.203 6.07L4.045 7.612C5.36471 10.6863 7.81472 13.1363 10.889 14.456L12.429 12.302C12.4917 12.2137 12.5835 12.1503 12.6883 12.1231C12.7932 12.0958 12.9042 12.1064 13.002 12.153C14.267 12.7539 15.6156 13.1601 17.002 13.358C17.1407 13.378 17.324 13.3993 17.552 13.422C17.6752 13.4346 17.7894 13.4926 17.8724 13.5846C17.9553 13.6766 18.0002 13.7961 18 13.92Z" fill="#181A23"/>
</svg>
