<svg width="21" height="20" viewBox="0 0 21 20" fill="none" xmlns="http://www.w3.org/2000/svg">
<path d="M10.5 0.5C15.7469 0.5 20 4.75314 20 10C20 15.2469 15.7469 19.5 10.5 19.5C5.25314 19.5 1 15.2469 1 10C1 4.75314 5.25314 0.5 10.5 0.5ZM10.5 1.5C8.24566 1.5 6.08332 2.3952 4.48926 3.98926C2.8952 5.58332 2 7.74566 2 10C2 12.1135 2.78726 14.1458 4.19922 15.7051L4.48926 16.0107C6.08332 17.6048 8.24566 18.5 10.5 18.5C12.6135 18.5 14.6458 17.7127 16.2051 16.3008L16.5107 16.0107C18.1048 14.4167 19 12.2543 19 10C19 7.88647 18.2127 5.85419 16.8008 4.29492L16.5107 3.98926C14.9167 2.3952 12.7543 1.5 10.5 1.5ZM11 5.5V10.5H15V11.5H10V5.5H11Z" fill="black" stroke="#181A23"/>
</svg>
