<svg width="24" height="25" viewBox="0 0 24 25" fill="none" xmlns="http://www.w3.org/2000/svg">
<g clip-path="url(#clip0_3198_2724)">
<path d="M12 0.5C8.81812 0.5 5.76375 1.76506 3.51562 4.01469C1.2652 6.26522 0.000643966 9.31734 0 12.5C0 15.6813 1.26562 18.7357 3.51562 20.9853C5.76375 23.2349 8.81812 24.5 12 24.5C15.1819 24.5 18.2362 23.2349 20.4844 20.9853C22.7344 18.7357 24 15.6813 24 12.5C24 9.31869 22.7344 6.26431 20.4844 4.01469C18.2362 1.76506 15.1819 0.5 12 0.5Z" fill="url(#paint0_linear_3198_2724)"/>
<path d="M5.43184 12.3733C8.93059 10.8493 11.2631 9.84451 12.4293 9.35901C15.7631 7.97282 16.455 7.73207 16.9068 7.72392C17.0062 7.72232 17.2275 7.74689 17.3718 7.8636C17.4918 7.96204 17.5256 8.09517 17.5425 8.18864C17.5575 8.28201 17.5781 8.49482 17.5612 8.66095C17.3812 10.5584 16.5993 15.1631 16.2018 17.2884C16.035 18.1876 15.7031 18.4891 15.3825 18.5186C14.685 18.5827 14.1562 18.0581 13.4812 17.6158C12.4256 16.9233 11.8293 16.4924 10.8037 15.8169C9.61872 15.0361 10.3875 14.6069 11.0625 13.9057C11.2387 13.7221 14.31 10.9293 14.3681 10.676C14.3756 10.6443 14.3831 10.5262 14.3118 10.4639C14.2425 10.4015 14.1393 10.4229 14.0643 10.4398C13.9575 10.4638 12.2718 11.579 9.00184 13.7853C8.52372 14.1142 8.09059 14.2745 7.70059 14.2661C7.27309 14.2569 6.44809 14.0238 5.83497 13.8247C5.08497 13.5804 4.48684 13.4512 4.53934 13.0363C4.56559 12.8203 4.86372 12.5992 5.43184 12.3733Z" fill="white"/>
</g>
<defs>
<linearGradient id="paint0_linear_3198_2724" x1="1200" y1="0.5" x2="1200" y2="2400.5" gradientUnits="userSpaceOnUse">
<stop stop-color="#2AABEE"/>
<stop offset="1" stop-color="#229ED9"/>
</linearGradient>
<clipPath id="clip0_3198_2724">
<rect width="24" height="24" fill="white" transform="translate(0 0.5)"/>
</clipPath>
</defs>
</svg>
