<svg  viewBox="0 0 25 24" fill="none" xmlns="http://www.w3.org/2000/svg">
<path d="M12.5 3.5C13.6668 3.5 14.8097 3.82082 15.6465 4.41992C16.4699 5.00946 17 5.86611 17 7C17 7.54954 16.7903 8.11558 16.3984 8.73145L15.9092 9.5H18V10.5H14.8975L14.7549 10.6289L12.5449 12.6289L11.582 13.5H18V14.5H10.5293L10.3818 14.6514C9.99711 15.0465 9.66269 15.4485 9.4209 15.8291C9.18878 16.1946 9 16.6047 9 17C9 18.0496 9.67046 18.6906 10.3906 19.042C11.0989 19.3876 11.9299 19.5 12.5 19.5C13.2844 19.5 14.0861 19.1342 14.7129 18.752C15.126 18.5 15.4921 18.2179 15.7725 17.9795L16.4844 18.6914C16.2209 18.9184 15.841 19.2246 15.3779 19.5195C14.5585 20.0414 13.5371 20.5 12.5 20.5C11.3332 20.5 10.1903 20.1792 9.35352 19.5801C8.53014 18.9905 8 18.1339 8 17C8 16.4505 8.20968 15.8844 8.60156 15.2686L9.09082 14.5H7V13.5H10.1123L10.2578 13.3584C10.5873 13.0386 12.0385 11.737 12.4551 11.3799L13.4814 10.5H7V9.5H14.4707L14.6182 9.34863C15.0029 8.95351 15.3373 8.55155 15.5791 8.1709C15.8112 7.80538 16 7.3953 16 7C16 5.95042 15.3295 5.30939 14.6094 4.95801C13.9011 4.61243 13.0701 4.5 12.5 4.5C11.7152 4.5 10.9154 4.86579 10.29 5.24805C9.87594 5.50117 9.50823 5.78268 9.22754 6.02051L8.51465 5.30762C8.77811 5.08063 9.15895 4.77545 9.62207 4.48047C10.4415 3.9586 11.4629 3.5 12.5 3.5Z" fill="#494A4E" stroke="#494A4E"/>
</svg>
