<svg width="56" height="56" viewBox="0 0 56 56" fill="none" xmlns="http://www.w3.org/2000/svg">
<rect width="56" height="56" rx="28" fill="#C8FA03"/>
<path d="M24.6719 28.6211C25.1797 28.8789 25.6367 29.1953 26.043 29.5703C26.4492 29.9453 26.8008 30.3672 27.0977 30.8359C27.3945 31.3047 27.6172 31.8047 27.7656 32.3359C27.9141 32.8672 27.9922 33.4219 28 34H26.5C26.5 33.3828 26.3828 32.8008 26.1484 32.2539C25.9141 31.707 25.5898 31.2305 25.1758 30.8242C24.7617 30.418 24.2852 30.0977 23.7461 29.8633C23.207 29.6289 22.625 29.5078 22 29.5C21.3828 29.5 20.8008 29.6172 20.2539 29.8516C19.707 30.0859 19.2305 30.4102 18.8242 30.8242C18.418 31.2383 18.0977 31.7148 17.8633 32.2539C17.6289 32.793 17.5078 33.375 17.5 34H16C16 33.4297 16.0781 32.8789 16.2344 32.3477C16.3906 31.8164 16.6133 31.3164 16.9023 30.8477C17.1914 30.3789 17.5391 29.957 17.9453 29.582C18.3516 29.207 18.8125 28.8867 19.3281 28.6211C18.7578 28.1992 18.3125 27.668 17.9922 27.0273C17.6719 26.3867 17.5078 25.7109 17.5 25C17.5 24.3828 17.6172 23.8008 17.8516 23.2539C18.0859 22.707 18.4102 22.2305 18.8242 21.8242C19.2383 21.418 19.7148 21.0977 20.2539 20.8633C20.793 20.6289 21.375 20.5078 22 20.5C22.6172 20.5 23.1992 20.6172 23.7461 20.8516C24.293 21.0859 24.7695 21.4102 25.1758 21.8242C25.582 22.2383 25.9023 22.7148 26.1367 23.2539C26.3711 23.793 26.4922 24.375 26.5 25C26.5 25.7109 26.3398 26.3867 26.0195 27.0273C25.6992 27.668 25.25 28.1992 24.6719 28.6211ZM19 25C19 25.4141 19.0781 25.8008 19.2344 26.1602C19.3906 26.5195 19.6055 26.8359 19.8789 27.1094C20.1523 27.3828 20.4688 27.5977 20.8281 27.7539C21.1875 27.9102 21.5781 27.9922 22 28C22.4062 28 22.793 27.9219 23.1602 27.7656C23.5273 27.6094 23.8438 27.3945 24.1094 27.1211C24.375 26.8477 24.5898 26.5312 24.7539 26.1719C24.918 25.8125 25 25.4219 25 25C25 24.5938 24.9219 24.207 24.7656 23.8398C24.6094 23.4727 24.3945 23.1562 24.1211 22.8906C23.8477 22.625 23.5273 22.4102 23.1602 22.2461C22.793 22.082 22.4062 22 22 22C21.5859 22 21.1992 22.0781 20.8398 22.2344C20.4805 22.3906 20.1641 22.6055 19.8906 22.8789C19.6172 23.1523 19.4023 23.4727 19.2461 23.8398C19.0898 24.207 19.0078 24.5938 19 25ZM40 20.5V22H29.5V20.5H40ZM29.5 26.5H40V28H29.5V26.5ZM29.5 32.5H40V34H29.5V32.5Z" fill="#181A23"/>
</svg>
