<svg width="56" height="56" viewBox="0 0 56 56" fill="none" xmlns="http://www.w3.org/2000/svg">
<rect width="56" height="56" rx="28" fill="#C8FA03"/>
<path d="M31.2134 19C30.31 18.9998 29.4191 19.2112 28.6121 19.6173C27.8051 20.0235 27.1044 20.613 26.5663 21.3387C26.0281 22.0643 25.6674 22.906 25.5131 23.7962C25.3587 24.6864 25.4151 25.6003 25.6775 26.4649L19 33.1429V37H22.8569L29.5344 30.322C30.3301 30.5636 31.1685 30.6307 31.9926 30.5189C32.8166 30.4071 33.6069 30.1189 34.3095 29.674C35.0121 29.2291 35.6105 28.638 36.064 27.9409C36.5175 27.2438 36.8154 26.4571 36.9374 25.6345C37.0594 24.8118 37.0026 23.9726 36.771 23.1738C36.5393 22.3751 36.1381 21.6357 35.5949 21.0061C35.0516 20.3764 34.379 19.8713 33.6229 19.5251C32.8668 19.1789 32.045 18.9998 31.2134 19ZM31.2134 29.2857C30.7708 29.2856 30.3307 29.2202 29.9072 29.0916L29.1699 28.8679L28.6254 29.4124L26.5806 31.4573L25.6942 30.5714L24.7853 31.4804L25.6717 32.3669L24.6522 33.3865L23.7658 32.5L22.8569 33.409L23.7433 34.2955L22.3246 35.7143H20.2856V33.6751L26.5864 27.3739L27.1315 26.8294L26.9078 26.092C26.6331 25.1862 26.6509 24.2168 26.9588 23.3218C27.2668 22.4267 27.849 21.6515 28.6229 21.1065C29.3967 20.5615 30.3227 20.2744 31.2691 20.2861C32.2155 20.2977 33.1341 20.6075 33.8943 21.1714C34.6545 21.7353 35.2176 22.5245 35.5034 23.4269C35.7892 24.3293 35.7832 25.2988 35.4862 26.1975C35.1893 27.0963 34.6165 27.8785 33.8494 28.433C33.0823 28.9874 32.1599 29.2858 31.2134 29.2857Z" fill="#181A23"/>
<path d="M32 25C32.5523 25 33 24.5523 33 24C33 23.4477 32.5523 23 32 23C31.4477 23 31 23.4477 31 24C31 24.5523 31.4477 25 32 25Z" fill="#181A23"/>
</svg>
