<svg width="21" height="21" viewBox="0 0 21 21" fill="none" xmlns="http://www.w3.org/2000/svg">
<path d="M16.1882 14.617L20.4712 18.899L19.0562 20.314L14.7742 16.031C13.181 17.3082 11.1992 18.0029 9.15723 18C4.18923 18 0.157227 13.968 0.157227 9C0.157227 4.032 4.18923 0 9.15723 0C14.1252 0 18.1572 4.032 18.1572 9C18.1601 11.042 17.4654 13.0237 16.1882 14.617ZM14.1822 13.875C15.4511 12.5697 16.1598 10.8204 16.1572 9C16.1572 5.133 13.0242 2 9.15723 2C5.29023 2 2.15723 5.133 2.15723 9C2.15723 12.867 5.29023 16 9.15723 16C10.9776 16.0025 12.7269 15.2938 14.0322 14.025L14.1822 13.875Z" fill="#181A23"/>
</svg>
