<svg width="17" height="16" viewBox="0 0 17 16" fill="none" xmlns="http://www.w3.org/2000/svg">
<path d="M3.64645 15.8536C3.84171 16.0488 4.15829 16.0488 4.35355 15.8536L7.53553 12.6716C7.7308 12.4763 7.7308 12.1597 7.53553 11.9645C7.34027 11.7692 7.02369 11.7692 6.82843 11.9645L4 14.7929L1.17157 11.9645C0.976311 11.7692 0.659729 11.7692 0.464467 11.9645C0.269204 12.1597 0.269204 12.4763 0.464467 12.6716L3.64645 15.8536ZM3.5 0.5L3.5 15.5L4.5 15.5L4.5 0.5L3.5 0.5Z" fill="#181A23"/>
<path d="M12.6464 0.146445C12.8417 -0.0488167 13.1583 -0.0488167 13.3536 0.146445L16.5355 3.32843C16.7308 3.52369 16.7308 3.84027 16.5355 4.03553C16.3403 4.23079 16.0237 4.23079 15.8284 4.03553L13 1.20711L10.1716 4.03553C9.97631 4.2308 9.65973 4.2308 9.46447 4.03553C9.2692 3.84027 9.2692 3.52369 9.46447 3.32843L12.6464 0.146445ZM12.5 15.5L12.5 0.499999L13.5 0.499999L13.5 15.5L12.5 15.5Z" fill="#181A23"/>
</svg>
