<?xml version="1.0" encoding="UTF-8"?>
<svg xmlns="http://www.w3.org/2000/svg" xmlns:xlink="http://www.w3.org/1999/xlink" width="0" height="0">
<symbol id="geolocation" width='14' height='20'  viewBox="0 0 14 20" >
<path d="M7 9.5C6.33696 9.5 5.70107 9.23661 5.23223 8.76777C4.76339 8.29893 4.5 7.66304 4.5 7C4.5 6.33696 4.76339 5.70107 5.23223 5.23223C5.70107 4.76339 6.33696 4.5 7 4.5C7.66304 4.5 8.29893 4.76339 8.76777 5.23223C9.23661 5.70107 9.5 6.33696 9.5 7C9.5 7.3283 9.43534 7.65339 9.3097 7.95671C9.18406 8.26002 8.99991 8.53562 8.76777 8.76777C8.53562 8.99991 8.26002 9.18406 7.95671 9.3097C7.65339 9.43534 7.3283 9.5 7 9.5ZM7 0C5.14348 0 3.36301 0.737498 2.05025 2.05025C0.737498 3.36301 0 5.14348 0 7C0 12.25 7 20 7 20C7 20 14 12.25 14 7C14 5.14348 13.2625 3.36301 11.9497 2.05025C10.637 0.737498 8.85652 0 7 0Z" />
</symbol>

<symbol id="search" viewBox="0 0 21 21" width='21' height='21' >
<path d="M16.1882 14.617L20.4712 18.899L19.0562 20.314L14.7742 16.031C13.181 17.3082 11.1992 18.0029 9.15723 18C4.18923 18 0.157227 13.968 0.157227 9C0.157227 4.032 4.18923 0 9.15723 0C14.1252 0 18.1572 4.032 18.1572 9C18.1601 11.042 17.4654 13.0237 16.1882 14.617ZM14.1822 13.875C15.4511 12.5697 16.1598 10.8204 16.1572 9C16.1572 5.133 13.0242 2 9.15723 2C5.29023 2 2.15723 5.133 2.15723 9C2.15723 12.867 5.29023 16 9.15723 16C10.9776 16.0025 12.7269 15.2938 14.0322 14.025L14.1822 13.875Z" />
</symbol>

<symbol id="account" width="18" height="18" viewBox="0 0 18 18">
<path d="M9 9C7.7625 9 6.70312 8.55937 5.82187 7.67812C4.94062 6.79687 4.5 5.7375 4.5 4.5C4.5 3.2625 4.94062 2.20313 5.82187 1.32188C6.70312 0.440625 7.7625 0 9 0C10.2375 0 11.2969 0.440625 12.1781 1.32188C13.0594 2.20313 13.5 3.2625 13.5 4.5C13.5 5.7375 13.0594 6.79687 12.1781 7.67812C11.2969 8.55937 10.2375 9 9 9ZM0 18V14.85C0 14.2125 0.16425 13.6267 0.49275 13.0927C0.82125 12.5587 1.257 12.1508 1.8 11.8688C2.9625 11.2875 4.14375 10.8517 5.34375 10.5615C6.54375 10.2712 7.7625 10.1257 9 10.125C10.2375 10.1243 11.4562 10.2697 12.6562 10.5615C13.8562 10.8532 15.0375 11.289 16.2 11.8688C16.7437 12.15 17.1799 12.558 17.5084 13.0927C17.8369 13.6275 18.0007 14.2133 18 14.85V18H0Z" />
</symbol>

<symbol id="calendar" width="20" height="20" viewBox="0 0 20 20" >
<path d="M15 2H19C19.2652 2 19.5196 2.10536 19.7071 2.29289C19.8946 2.48043 20 2.73478 20 3V19C20 19.2652 19.8946 19.5196 19.7071 19.7071C19.5196 19.8946 19.2652 20 19 20H1C0.734784 20 0.48043 19.8946 0.292893 19.7071C0.105357 19.5196 0 19.2652 0 19V3C0 2.73478 0.105357 2.48043 0.292893 2.29289C0.48043 2.10536 0.734784 2 1 2H5V0H7V2H13V0H15V2ZM2 8V18H18V8H2ZM4 10H6V12H4V10ZM9 10H11V12H9V10ZM14 10H16V12H14V10Z" />
</symbol>

</svg>
